G:\RME\Thesis\opencap-processing\Data\089bb815-6ab6-4c35-820c-ac6f9c5db3e0\OpenSimData\Dynamics\walking\GRF_resultant_walking_0.mot
version=1
nRows=10
nColumns=19
inDegrees=yes
endheader 
time	ground_force_right_vx	ground_force_right_vy	ground_force_right_vz	ground_force_right_px	ground_force_right_py	ground_force_right_pz	ground_torque_right_x	ground_torque_right_y	ground_torque_right_z	ground_force_left_vx	ground_force_left_vy	ground_force_left_vz	ground_force_left_px	ground_force_left_py	ground_force_left_pz	ground_torque_left_x	ground_torque_left_y	ground_torque_left_z	
          2.00000000	         18.26569364	        585.18667794	          2.33787666	          0.60604096	          0.00000000	         -0.18223027	          0.00000000	         -0.14665324	          0.00000000	         10.06421379	        169.95753341	        -27.58809522	          0.79444517	          0.00000000	         -0.35834924	          0.00000000	         -1.48038636	          0.00000000	
          2.01000000	         18.78933515	        563.76181734	          5.76041703	          0.60907765	          0.00000000	         -0.18374491	          0.00000000	          0.02218314	          0.00000000	          7.76244227	        179.90236696	        -29.67421559	          0.79361737	          0.00000000	         -0.35815013	          0.00000000	         -1.53864938	          0.00000000	
          2.02000000	         18.71344039	        542.69302189	          9.74709748	          0.61204145	          0.00000000	         -0.18524619	          0.00000000	          0.15506304	          0.00000000	          5.33493354	        192.84992269	        -30.80728285	          0.79288068	          0.00000000	         -0.35801337	          0.00000000	         -1.59861026	          0.00000000	
          2.03000000	         18.50217479	        522.00190853	         14.06246083	          0.61487388	          0.00000000	         -0.18668821	          0.00000000	          0.22019610	          0.00000000	          3.06706871	        209.44201946	        -30.96399107	          0.79229413	          0.00000000	         -0.35797595	          0.00000000	         -1.64625649	          0.00000000	
          2.04000000	         18.04334156	        501.63594690	         18.21690958	          0.61749196	          0.00000000	         -0.18802383	          0.00000000	          0.21017162	          0.00000000	          1.23756001	        230.27199900	        -31.02522293	          0.79191521	          0.00000000	         -0.35809080	          0.00000000	         -1.67333045	          0.00000000	
          2.05000000	         17.09409672	        481.18068634	         22.31452314	          0.61992777	          0.00000000	         -0.18923656	          0.00000000	          0.12354002	          0.00000000	          0.74177992	        255.94931463	        -30.64833378	          0.79185097	          0.00000000	         -0.35838838	          0.00000000	         -1.67010292	          0.00000000	
          2.06000000	         15.06530441	        459.38331761	         26.35411312	          0.62240853	          0.00000000	         -0.19034536	          0.00000000	         -0.02309462	          0.00000000	          1.66807609	        286.79706063	        -30.34746041	          0.79216318	          0.00000000	         -0.35890251	          0.00000000	         -1.62972393	          0.00000000	
          2.07000000	         12.57421067	        434.94043482	         30.78634614	          0.62516507	          0.00000000	         -0.19137891	          0.00000000	         -0.20292363	          0.00000000	          4.37421023	        322.85962076	        -30.50077864	          0.79288400	          0.00000000	         -0.35963758	          0.00000000	         -1.55101188	          0.00000000	
          2.08000000	          8.94302166	        409.33576517	         35.03162186	          0.62829343	          0.00000000	         -0.19237782	          0.00000000	         -0.38673856	          0.00000000	          8.33461177	        363.75255328	        -30.91439245	          0.79400458	          0.00000000	         -0.36056306	          0.00000000	         -1.44009064	          0.00000000	
          2.09000000	          5.05288725	        382.19248264	         38.88441063	          0.63191270	          0.00000000	         -0.19338022	          0.00000000	         -0.54581035	          0.00000000	         12.08557864	        408.35267888	        -31.47093716	          0.79545178	          0.00000000	         -0.36162905	          0.00000000	         -1.29305202	          0.00000000	
